<?xml version="1.0" encoding="iso-8859-1"?>
<!-- Uploaded to: SVG Repo, www.svgrepo.com, Generator: SVG Repo Mixer Tools -->
<svg height="800px" width="800px" version="1.1" id="Layer_1" xmlns="http://www.w3.org/2000/svg" xmlns:xlink="http://www.w3.org/1999/xlink" 
	 viewBox="0 0 512.001 512.001" xml:space="preserve">
<path style="fill:#4A5A67;" d="M0.001,256.006c0,141.395,114.606,255.998,255.996,255.994
	c141.398,0.004,256.004-114.598,256.004-255.994C512.009,114.61,397.395,0,255.996,0C114.606,0,0.001,114.614,0.001,256.006z"/>
<path style="fill:#444A54;" d="M500.05,333.443l-0.495-0.5c-0.016-0.016-0.037-0.02-0.053-0.036
	c0,0-182.778-182.779-182.791-182.793l-1.582-1.599c-1.326-1.343-3.142-2.099-5.026-2.099H100.461c-3.909,0-7.07,3.166-7.07,7.07
	v205.028c0,2.377,1.247,4.375,3.045,5.658c0.457,0.641,146.247,146.431,146.889,146.889c0.178,0.25,0.433,0.417,0.637,0.637
	c3.99,0.185,7.999,0.304,12.035,0.304C370.397,512.003,467.233,436.973,500.05,333.443z"/>
<g>
	<path style="fill:#F4F6F9;" d="M416.565,251.029L315.128,148.515c-1.326-1.343-3.141-2.099-5.026-2.099H100.461
		c-3.908,0-7.07,3.166-7.07,7.07v205.028c0,3.904,3.163,7.07,7.07,7.07h209.641c1.885,0,3.7-0.756,5.026-2.099l101.437-102.514
		C419.291,258.217,419.291,253.783,416.565,251.029z M307.154,351.444H107.531V160.556h199.622L401.589,256L307.154,351.444z"/>
	<path style="fill:#F4F6F9;" d="M253.928,205.046c-2.762-2.762-7.235-2.762-9.997,0l-40.955,40.955l-40.958-40.958
		c-2.762-2.762-7.235-2.762-9.997,0c-2.762,2.762-2.762,7.235,0,9.997l40.958,40.958l-40.958,40.958
		c-2.762,2.762-2.762,7.235,0,9.997c1.381,1.381,3.189,2.071,4.998,2.071s3.618-0.69,4.998-2.071l40.958-40.958l40.955,40.955
		c1.381,1.381,3.189,2.071,4.998,2.071s3.618-0.69,4.998-2.071c2.762-2.762,2.762-7.235,0-9.997l-40.955-40.955l40.955-40.955
		C256.69,212.283,256.69,207.808,253.928,205.046z"/>
</g>
</svg>